<svg version="1.1" xmlns="http://www.w3.org/2000/svg" xmlns:xlink="http://www.w3.org/1999/xlink" width="512.000000pt" height="512.000000pt" viewBox="0,0,256,256"><g fill="#ffffff" fill-rule="nonzero" stroke="none" stroke-width="1" stroke-linecap="butt" stroke-linejoin="miter" stroke-miterlimit="10" stroke-dasharray="" stroke-dashoffset="0" font-family="none" font-weight="none" font-size="none" text-anchor="none" style="mix-blend-mode: normal"><g transform="translate(-0.25,0.10317) scale(0.5,0.5)"><g transform="translate(0,512) scale(0.1,-0.1)"><path d="M2078,5110c-65,-19 -64,-19 -358,-420c-63,-85 -150,-204 -195,-265c-44,-60 -103,-141 -130,-178c-28,-38 -111,-151 -185,-251c-74,-101 -170,-231 -212,-289l-78,-106l-387,-3l-388,-3l-43,-28c-31,-20 -51,-43 -68,-80l-24,-52v-435v-435l24,-52c18,-37 37,-60 68,-79c38,-25 55,-29 143,-32l101,-4l68,-572c37,-314 83,-699 102,-856c40,-346 52,-397 115,-526c102,-208 281,-353 519,-421c62,-17 134,-18 1430,-18h1365l78,23c307,89 521,326 577,640c15,83 5,134 -37,191c-57,75 -180,92 -263,37c-52,-34 -75,-72 -90,-149c-28,-144 -123,-266 -248,-318l-57,-24l-1290,-3c-938,-2 -1306,0 -1350,8c-157,31 -276,147 -309,303c-9,39 -36,245 -61,457c-41,344 -109,911 -135,1124c-6,44 -10,85 -10,92c0,11 272,14 1569,16l1568,3l36,25c78,56 111,135 89,216c-15,54 -39,88 -89,124l-36,25l-1738,3l-1739,2v200v200h2160h2160v-199v-199l-89,-4c-77,-3 -95,-8 -128,-31c-52,-36 -83,-93 -94,-175c-25,-183 -99,-870 -99,-918c0,-96 54,-167 147,-194c81,-24 183,21 223,99c19,37 36,161 85,616c9,77 18,154 20,171l5,32l98,4c84,3 102,7 135,30c21,14 49,40 63,59l24,33v476v476l-24,33c-14,19 -42,45 -63,60l-38,26l-385,3l-385,3l-44,62c-25,34 -68,94 -96,132c-29,39 -141,192 -250,340c-767,1044 -686,939 -744,964c-63,27 -112,27 -168,-1c-48,-24 -83,-65 -101,-117c-28,-79 -9,-134 90,-267c41,-54 155,-209 254,-344c98,-134 265,-361 371,-505l191,-260l-573,-3c-315,-1 -835,-1 -1154,0l-581,3l66,90c36,50 94,128 128,175c212,289 522,712 594,809c118,159 125,173 125,240c0,62 -16,102 -60,143c-53,51 -127,69 -195,48z"></path><path d="M1680,1973c-46,-23 -60,-37 -82,-82l-28,-55v-436v-436l28,-55c22,-45 36,-59 82,-82c47,-25 63,-28 108,-24c65,7 110,34 148,89l29,41v467v467l-29,41c-38,55 -83,82 -148,89c-45,4 -61,1 -108,-24z"></path><path d="M2480,1973c-46,-23 -60,-37 -82,-82l-28,-55v-436v-436l28,-55c22,-45 36,-59 82,-82c47,-25 63,-28 108,-24c65,7 110,34 148,89l29,41v467v467l-29,41c-38,55 -83,82 -148,89c-45,4 -61,1 -108,-24z"></path><path d="M3280,1973c-46,-23 -60,-37 -82,-82l-28,-55v-436v-436l28,-55c22,-45 36,-59 82,-82c47,-25 63,-28 108,-24c65,7 110,34 148,89l29,41v467v467l-29,41c-38,55 -83,82 -148,89c-45,4 -61,1 -108,-24z"></path></g></g></g></svg>